<svg width="106.000000" height="106.000000" viewBox="0 0 106 106" fill="none" xmlns="http://www.w3.org/2000/svg" xmlns:xlink="http://www.w3.org/1999/xlink">
	<desc>
			Created with Pixso.
	</desc>
	<defs>
		<filter id="filter_1_62_dd" x="0.000000" y="0.000000" width="106.000000" height="106.000000" filterUnits="userSpaceOnUse" color-interpolation-filters="sRGB">
			<feFlood flood-opacity="0" result="BackgroundImageFix"/>
			<feColorMatrix in="SourceAlpha" type="matrix" values="0 0 0 0 0 0 0 0 0 0 0 0 0 0 0 0 0 0 127 0" result="hardAlpha"/>
			<feOffset dx="0" dy="4"/>
			<feGaussianBlur stdDeviation="1.33333"/>
			<feComposite in2="hardAlpha" operator="out" k2="-1" k3="1"/>
			<feColorMatrix type="matrix" values="0 0 0 0 0 0 0 0 0 0 0 0 0 0 0 0 0 0 0.25 0"/>
			<feBlend mode="normal" in2="BackgroundImageFix" result="effect_dropShadow_1"/>
			<feBlend mode="normal" in="SourceGraphic" in2="effect_dropShadow_1" result="shape"/>
		</filter>
		<filter id="filter_1_63_dd" x="19.666748" y="29.661377" width="67.333160" height="46.010315" filterUnits="userSpaceOnUse" color-interpolation-filters="sRGB">
			<feFlood flood-opacity="0" result="BackgroundImageFix"/>
			<feColorMatrix in="SourceAlpha" type="matrix" values="0 0 0 0 0 0 0 0 0 0 0 0 0 0 0 0 0 0 127 0" result="hardAlpha"/>
			<feOffset dx="0" dy="4"/>
			<feGaussianBlur stdDeviation="1.33333"/>
			<feComposite in2="hardAlpha" operator="out" k2="-1" k3="1"/>
			<feColorMatrix type="matrix" values="0 0 0 0 0 0 0 0 0 0 0 0 0 0 0 0 0 0 0.25 0"/>
			<feBlend mode="normal" in2="BackgroundImageFix" result="effect_dropShadow_1"/>
			<feBlend mode="normal" in="SourceGraphic" in2="effect_dropShadow_1" result="shape"/>
		</filter>
		<linearGradient id="paint_linear_1_62_0" x1="52.999989" y1="0.000000" x2="52.999989" y2="98.000000" gradientUnits="userSpaceOnUse">
			<stop stop-color="#1A6AE7"/>
			<stop offset="1.000000" stop-color="#20C2F4"/>
		</linearGradient>
		<linearGradient id="paint_linear_1_63_0" x1="53.333332" y1="29.661377" x2="53.333332" y2="67.671692" gradientUnits="userSpaceOnUse">
			<stop stop-color="#F7F7F7"/>
			<stop offset="1.000000" stop-color="#F9F9F9"/>
		</linearGradient>
	</defs>
	<g filter="url(#filter_1_62_dd)">
		<circle id="Ellipse 61" cx="53.000000" cy="49.000000" r="49.000000" fill="url(#paint_linear_1_62_0)"/>
	</g>
	<g filter="url(#filter_1_63_dd)">
		<path id="Mail Icon" d="M46.4502 53.7557L42.73 50.0354L25.383 67.3825C26.0152 67.6717 26.854 67.6717 28.4667 67.6717L78.1999 67.6717C79.8129 67.6717 80.6516 67.6717 81.2839 67.3824L63.937 50.0354L60.2168 53.7557C59.0424 54.93 57.6428 55.7415 56.1569 56.1903C55.2377 56.468 54.2856 56.6068 53.3335 56.6068C50.8422 56.6068 48.351 55.6564 46.4502 53.7557ZM82.7108 65.9552C82.9999 65.323 82.9999 64.4843 82.9999 62.8717L82.9999 34.4614C82.9999 32.7812 82.9999 31.9411 82.6729 31.2994L65.364 48.6084L82.7108 65.9552ZM81.3619 29.9884C80.7202 29.6614 79.8801 29.6614 78.1999 29.6614L28.4667 29.6614C26.7868 29.6614 25.9467 29.6614 25.3051 29.9882L47.7614 52.4446C48.8954 53.5785 50.289 54.2947 51.7508 54.593C52.7685 54.8006 53.8192 54.8057 54.8385 54.6084C56.3287 54.3199 57.7516 53.5986 58.9056 52.4446L81.3618 29.9883L81.3619 29.9884ZM23.9938 31.2992L23.9937 31.2994C23.6667 31.9411 23.6667 32.7812 23.6667 34.4614L23.6667 62.8717C23.6667 64.4845 23.6667 65.3232 23.956 65.9555L41.303 48.6084L23.9938 31.2992Z" clip-rule="evenodd" fill-rule="evenodd" fill="url(#paint_linear_1_63_0)" fill-opacity="1.000000"/>
	</g>
</svg>
