<svg class="svg-icon" width="106.000000" height="106.000000" viewBox="0 0 106 106" fill="none" xmlns="http://www.w3.org/2000/svg"
    xmlns:xlink="http://www.w3.org/1999/xlink">
    <defs>
        <linearGradient id="paint_linear_1_42_0" x1="52.999989" y1="0.000000" x2="52.999989" y2="98.000000"
            gradientUnits="userSpaceOnUse">
            <stop stop-color="#FB5976" />
            <stop offset="1.000000" stop-color="#FA243B" />
        </linearGradient>
    </defs>
    <g filter="url(#filter_1_42_dd)">
        <circle id="Ellipse 60" cx="53.000000" cy="49.000000" r="49.000000" fill="url(#paint_linear_1_42_0)" />
    </g>
    <g filter="url(#filter_1_43_dd)">
        <path class="hover-effect" id="Apple Music Icon"
            d="M69.3978 21.5127L42.1383 27.125C41.2087 27.3164 40.5416 28.1348 40.5416 29.0839L40.5416 40.4433L40.5417 59.2559C40.5417 59.3179 40.5422 59.3822 40.5427 59.4486C40.5528 60.8221 40.5695 63.0736 36.5104 63.2872C32.2552 63.5112 28 66.4226 28 70.006C27.9882 70.1529 28 70.3042 28 70.4538C28 73.9171 31.2086 76.7247 35.1667 76.7247C36.3808 76.7247 37.5243 76.4605 38.5264 75.9943C41.1408 75.1489 43.6771 72.9689 43.6771 67.5424L43.6771 40.6129C43.6771 40.1383 44.0107 39.7291 44.4755 39.6334L66.6629 35.0654C67.2833 34.9377 67.8646 35.4115 67.8646 36.0449L67.8646 53.6569C67.8646 53.7188 67.8651 53.7832 67.8656 53.8495C67.8757 55.223 67.8924 57.4745 63.8333 57.6881C59.5781 57.9121 55.3229 60.8236 55.3229 64.4069C55.3111 64.5539 55.3228 64.7052 55.3228 64.8548C55.3228 68.3181 58.5314 71.1257 62.4895 71.1257C63.7036 71.1257 64.8473 70.8615 65.8494 70.3952C68.4638 69.5497 71 67.3697 71 61.9434L71 34.1725L71 33.2766L71 22.8187C71 21.9742 70.2249 21.3424 69.3978 21.5127Z"
            clip-rule="evenodd" fill-rule="evenodd" fill="#FFFFFF" fill-opacity="1.000000" />
    </g>
</svg>