<svg width="106.000000" height="106.000000" viewBox="0 0 106 106" fill="none" xmlns="http://www.w3.org/2000/svg" xmlns:xlink="http://www.w3.org/1999/xlink">
	<defs>
		<filter id="filter_1_187_dd" x="0.000000" y="0.000000" width="106.000000" height="106.000000" filterUnits="userSpaceOnUse" color-interpolation-filters="sRGB">
			<feFlood flood-opacity="0" result="BackgroundImageFix"/>
			<feColorMatrix in="SourceAlpha" type="matrix" values="0 0 0 0 0 0 0 0 0 0 0 0 0 0 0 0 0 0 127 0" result="hardAlpha"/>
			<feOffset dx="0" dy="4"/>
			<feGaussianBlur stdDeviation="1.33333"/>
			<feComposite in2="hardAlpha" operator="out" k2="-1" k3="1"/>
			<feColorMatrix type="matrix" values="0 0 0 0 0 0 0 0 0 0 0 0 0 0 0 0 0 0 0.25 0"/>
			<feBlend mode="normal" in2="BackgroundImageFix" result="effect_dropShadow_1"/>
			<feBlend mode="normal" in="SourceGraphic" in2="effect_dropShadow_1" result="shape"/>
		</filter>
		<filter id="filter_1_188_dd" x="24.000000" y="20.000000" width="59.000000" height="68.000000" filterUnits="userSpaceOnUse" color-interpolation-filters="sRGB">
			<feFlood flood-opacity="0" result="BackgroundImageFix"/>
			<feColorMatrix in="SourceAlpha" type="matrix" values="0 0 0 0 0 0 0 0 0 0 0 0 0 0 0 0 0 0 127 0" result="hardAlpha"/>
			<feOffset dx="0" dy="4"/>
			<feGaussianBlur stdDeviation="1.33333"/>
			<feComposite in2="hardAlpha" operator="out" k2="-1" k3="1"/>
			<feColorMatrix type="matrix" values="0 0 0 0 0 0 0 0 0 0 0 0 0 0 0 0 0 0 0.15 0"/>
			<feBlend mode="normal" in2="BackgroundImageFix" result="effect_dropShadow_1"/>
			<feBlend mode="normal" in="SourceGraphic" in2="effect_dropShadow_1" result="shape"/>
		</filter>
		<linearGradient id="paint_linear_1_187_0" x1="53.000000" y1="0.000000" x2="53.000000" y2="98.000000" gradientUnits="userSpaceOnUse">
			<stop stop-color="#FFDD5F"/>
			<stop offset="1.000000" stop-color="#FDCB00"/>
		</linearGradient>
	</defs>
	<g filter="url(#filter_1_187_dd)">
		<circle id="Ellipse 71" cx="53.000000" cy="49.000000" r="49.000000" fill="url(#paint_linear_1_187_0)"/>
	</g>
	<g filter="url(#filter_1_188_dd)">
		<path id="Subtract" d="M30.0854 20L28 20L28 75C28 77.7614 30.2386 80 33 80L74 80C76.7614 80 79 77.7614 79 75L79 20L77.9146 20C77.7087 20.5826 77.1531 21 76.5 21C75.8469 21 75.2913 20.5826 75.0854 20L72.9146 20C72.7087 20.5826 72.1531 21 71.5 21C70.8469 21 70.2913 20.5826 70.0854 20L67.9146 20C67.7087 20.5826 67.1531 21 66.5 21C65.8469 21 65.2913 20.5826 65.0854 20L62.9146 20C62.7087 20.5826 62.1531 21 61.5 21C60.8469 21 60.2913 20.5826 60.0854 20L57.9146 20C57.7087 20.5826 57.1531 21 56.5 21C55.8469 21 55.2913 20.5826 55.0854 20L52.9146 20C52.7087 20.5826 52.1531 21 51.5 21C50.8469 21 50.2913 20.5826 50.0854 20L47.9146 20C47.7087 20.5826 47.1531 21 46.5 21C45.8469 21 45.2913 20.5826 45.0854 20L42.9146 20C42.7087 20.5826 42.1531 21 41.5 21C40.8469 21 40.2913 20.5826 40.0854 20L37.9146 20C37.7087 20.5826 37.1531 21 36.5 21C35.8469 21 35.2913 20.5826 35.0854 20L32.9146 20C32.7087 20.5826 32.1531 21 31.5 21C30.8469 21 30.2913 20.5826 30.0854 20Z" clip-rule="evenodd" fill-rule="evenodd" fill="#FFFFFF" fill-opacity="1.000000"/>
		<line id="Line 1" x1="34.000000" y1="35.500000" x2="72.000000" y2="35.500000" stroke="#DEDDE2"/>
		<line id="Line 2" x1="34.000000" y1="46.500000" x2="72.000000" y2="46.500000" stroke="#DEDDE2"/>
		<line id="Line 3" x1="34.000000" y1="57.500000" x2="72.000000" y2="57.500000" stroke="#DEDDE2"/>
		<line id="Line 4" x1="34.000000" y1="68.500000" x2="72.000000" y2="68.500000" stroke="#DEDDE2"/>
	</g>
</svg>
