<svg width="106.000000" height="106.000000" viewBox="0 0 106 106" fill="none" xmlns="http://www.w3.org/2000/svg" xmlns:xlink="http://www.w3.org/1999/xlink">
	<desc>
			Created with Pixso.
	</desc>
	<defs>
		<filter id="filter_1_96_dd" x="0.000000" y="0.000000" width="106.000000" height="106.000000" filterUnits="userSpaceOnUse" color-interpolation-filters="sRGB">
			<feFlood flood-opacity="0" result="BackgroundImageFix"/>
			<feColorMatrix in="SourceAlpha" type="matrix" values="0 0 0 0 0 0 0 0 0 0 0 0 0 0 0 0 0 0 127 0" result="hardAlpha"/>
			<feOffset dx="0" dy="4"/>
			<feGaussianBlur stdDeviation="1.33333"/>
			<feComposite in2="hardAlpha" operator="out" k2="-1" k3="1"/>
			<feColorMatrix type="matrix" values="0 0 0 0 0 0 0 0 0 0 0 0 0 0 0 0 0 0 0.25 0"/>
			<feBlend mode="normal" in2="BackgroundImageFix" result="effect_dropShadow_1"/>
			<feBlend mode="normal" in="SourceGraphic" in2="effect_dropShadow_1" result="shape"/>
		</filter>
		<filter id="filter_1_97_dd" x="11.750000" y="11.750000" width="83.250000" height="83.250000" filterUnits="userSpaceOnUse" color-interpolation-filters="sRGB">
			<feFlood flood-opacity="0" result="BackgroundImageFix"/>
			<feColorMatrix in="SourceAlpha" type="matrix" values="0 0 0 0 0 0 0 0 0 0 0 0 0 0 0 0 0 0 127 0" result="hardAlpha"/>
			<feOffset dx="0" dy="4"/>
			<feGaussianBlur stdDeviation="1.33333"/>
			<feComposite in2="hardAlpha" operator="out" k2="-1" k3="1"/>
			<feColorMatrix type="matrix" values="0 0 0 0 0 0 0 0 0 0 0 0 0 0 0 0 0 0 0.15 0"/>
			<feBlend mode="normal" in2="BackgroundImageFix" result="effect_dropShadow_1"/>
			<feBlend mode="normal" in="SourceGraphic" in2="effect_dropShadow_1" result="shape"/>
		</filter>
		<filter id="filter_1_152_dd" x="23.274323" y="20.211853" width="60.201103" height="60.201111" filterUnits="userSpaceOnUse" color-interpolation-filters="sRGB">
			<feFlood flood-opacity="0" result="BackgroundImageFix"/>
			<feColorMatrix in="SourceAlpha" type="matrix" values="0 0 0 0 0 0 0 0 0 0 0 0 0 0 0 0 0 0 127 0" result="hardAlpha"/>
			<feOffset dx="0" dy="0.9375"/>
			<feGaussianBlur stdDeviation="0.3125"/>
			<feComposite in2="hardAlpha" operator="out" k2="-1" k3="1"/>
			<feColorMatrix type="matrix" values="0 0 0 0 0 0 0 0 0 0 0 0 0 0 0 0 0 0 0.25 0"/>
			<feBlend mode="normal" in2="BackgroundImageFix" result="effect_dropShadow_1"/>
			<feBlend mode="normal" in="SourceGraphic" in2="effect_dropShadow_1" result="shape"/>
		</filter>
		<linearGradient id="paint_linear_1_96_0" x1="53.000076" y1="0.150769" x2="53.000076" y2="97.849228" gradientUnits="userSpaceOnUse">
			<stop stop-color="#1BC9FA"/>
			<stop offset="0.760051" stop-color="#1F70F0"/>
		</linearGradient>
	</defs>
	<g filter="url(#filter_1_96_dd)">
		<circle id="Ellipse 64" cx="53.000000" cy="49.000000" r="49.000000" fill="url(#paint_linear_1_96_0)"/>
	</g>
	<g filter="url(#filter_1_97_dd)">
		<rect id="Rectangle 80" x="52.832336" y="11.750000" width="1.085336" height="6.873797" fill="#FFFFFF"/>
		<rect id="Rectangle 81" x="52.832382" y="80.126198" width="1.085336" height="6.873797" fill="#FFFFFF"/>
		<rect id="Rectangle 80" x="46.307129" y="12.415901" width="1.085336" height="6.873797" transform="rotate(-10 46.307129 12.415901)" fill="#FFFFFF"/>
		<rect id="Rectangle 81" x="58.180618" y="79.752998" width="1.085336" height="6.873797" transform="rotate(-10 58.180618 79.752998)" fill="#FFFFFF"/>
		<rect id="Rectangle 80" x="39.996719" y="14.204445" width="1.085336" height="6.873797" transform="rotate(-20 39.996719 14.204445)" fill="#FFFFFF"/>
		<rect id="Rectangle 81" x="63.382599" y="78.457214" width="1.085336" height="6.873797" transform="rotate(-20 63.382599 78.457214)" fill="#FFFFFF"/>
		<rect id="Rectangle 80" width="1.085336" height="6.873797" transform="matrix(0.939693 0.34202 0.34202 -0.939693 39.9967 84.5452)" fill="#FFFFFF"/>
		<rect id="Rectangle 81" width="1.085336" height="6.873797" transform="matrix(0.939693 0.34202 0.34202 -0.939693 63.3826 20.2925)" fill="#FFFFFF"/>
		<rect id="Rectangle 80" width="1.085336" height="6.873797" transform="matrix(0.984808 0.173648 0.173648 -0.984808 46.3071 86.3341)" fill="#FFFFFF"/>
		<rect id="Rectangle 81" width="1.085336" height="6.873797" transform="matrix(0.984808 0.173648 0.173648 -0.984808 58.1806 18.997)" fill="#FFFFFF"/>
		<rect id="Rectangle 80" x="34.092560" y="17.062119" width="1.085336" height="6.873797" transform="rotate(-30 34.092560 17.062119)" fill="#FFFFFF"/>
		<rect id="Rectangle 81" x="68.280701" y="76.277878" width="1.085336" height="6.873797" transform="rotate(-30 68.280701 76.277878)" fill="#FFFFFF"/>
		<rect id="Rectangle 80" width="1.085336" height="6.873797" transform="matrix(0.866025 0.5 0.5 -0.866025 34.0926 81.6879)" fill="#FFFFFF"/>
		<rect id="Rectangle 81" width="1.085336" height="6.873797" transform="matrix(0.866025 0.5 0.5 -0.866025 68.2807 22.4725)" fill="#FFFFFF"/>
		<rect id="Rectangle 80" x="28.774414" y="20.901497" width="1.085336" height="6.873797" transform="rotate(-40 28.774414 20.901497)" fill="#FFFFFF"/>
		<rect id="Rectangle 81" x="72.726013" y="73.280548" width="1.085336" height="6.873797" transform="rotate(-40 72.726013 73.280548)" fill="#FFFFFF"/>
		<rect id="Rectangle 80" width="1.085336" height="6.873797" transform="matrix(0.766044 0.642788 0.642788 -0.766044 28.7744 77.8485)" fill="#FFFFFF"/>
		<rect id="Rectangle 81" width="1.085336" height="6.873797" transform="matrix(0.766044 0.642788 0.642788 -0.766044 72.726 25.4694)" fill="#FFFFFF"/>
		<rect id="Rectangle 80" x="24.203705" y="25.605591" width="1.085336" height="6.873797" transform="rotate(-50 24.203705 25.605591)" fill="#FFFFFF"/>
		<rect id="Rectangle 81" x="76.582855" y="69.557190" width="1.085336" height="6.873797" transform="rotate(-50 76.582855 69.557190)" fill="#FFFFFF"/>
		<rect id="Rectangle 80" width="1.085336" height="6.873797" transform="matrix(0.642788 0.766044 0.766044 -0.642788 24.2037 73.1444)" fill="#FFFFFF"/>
		<rect id="Rectangle 81" width="1.085336" height="6.873797" transform="matrix(0.642788 0.766044 0.766044 -0.642788 76.5829 29.1928)" fill="#FFFFFF"/>
		<rect id="Rectangle 80" x="20.519455" y="31.032433" width="1.085336" height="6.873797" transform="rotate(-60 20.519455 31.032433)" fill="#FFFFFF"/>
		<rect id="Rectangle 81" x="79.735031" y="65.220497" width="1.085336" height="6.873797" transform="rotate(-60 79.735031 65.220497)" fill="#FFFFFF"/>
		<rect id="Rectangle 80" width="1.085336" height="6.873797" transform="matrix(0.5 0.866025 0.866025 -0.5 20.5195 67.7176)" fill="#FFFFFF"/>
		<rect id="Rectangle 81" width="1.085336" height="6.873797" transform="matrix(0.5 0.866025 0.866025 -0.5 79.735 33.5295)" fill="#FFFFFF"/>
		<rect id="Rectangle 80" x="17.833618" y="37.016479" width="1.085336" height="6.873797" transform="rotate(-70 17.833618 37.016479)" fill="#FFFFFF"/>
		<rect id="Rectangle 81" x="82.086174" y="60.402351" width="1.085336" height="6.873797" transform="rotate(-70 82.086174 60.402351)" fill="#FFFFFF"/>
		<rect id="Rectangle 80" width="1.085336" height="6.873797" transform="matrix(0.34202 0.939693 0.939693 -0.34202 17.8336 61.7335)" fill="#FFFFFF"/>
		<rect id="Rectangle 81" width="1.085336" height="6.873797" transform="matrix(0.34202 0.939693 0.939693 -0.34202 82.0862 38.3476)" fill="#FFFFFF"/>
		<rect id="Rectangle 80" x="16.227478" y="43.375870" width="1.085336" height="6.873797" transform="rotate(-80 16.227478 43.375870)" fill="#FFFFFF"/>
		<rect id="Rectangle 81" x="83.564613" y="55.249283" width="1.085336" height="6.873797" transform="rotate(-80 83.564613 55.249283)" fill="#FFFFFF"/>
		<rect id="Rectangle 80" width="1.085336" height="6.873797" transform="matrix(0.173648 0.984808 0.984808 -0.173648 16.2275 55.3741)" fill="#FFFFFF"/>
		<rect id="Rectangle 81" width="1.085336" height="6.873797" transform="matrix(0.173648 0.984808 0.984808 -0.173648 83.5646 43.5007)" fill="#FFFFFF"/>
		<rect id="Rectangle 80" x="15.750000" y="49.917664" width="1.085336" height="6.873797" transform="rotate(-90 15.750000 49.917664)" fill="#FFFFFF"/>
		<rect id="Rectangle 81" x="84.126198" y="49.917603" width="1.085336" height="6.873797" transform="rotate(-90 84.126198 49.917603)" fill="#FFFFFF"/>
		<g filter="url(#filter_1_152_dd)">
			<path id="Rectangle 82" d="M79.9798 22.77L55.933 51.9331L50.8167 46.8167L79.9798 22.77Z" fill-rule="nonzero" fill="#FE3C30"/>
			<path id="Rectangle 83" d="M26.77 75.9797L55.9331 51.933L50.8167 46.8167L26.77 75.9797Z" fill-rule="nonzero" fill="#FFFFFF"/>
		</g>
	</g>
</svg>
