<svg width="106.000000" height="106.000000" viewBox="0 0 106 106" fill="none" xmlns="http://www.w3.org/2000/svg" xmlns:xlink="http://www.w3.org/1999/xlink">
	<defs>
		<filter id="filter_1_52_dd" x="0.000000" y="0.000000" width="106.000000" height="106.000000" filterUnits="userSpaceOnUse" color-interpolation-filters="sRGB">
			<feFlood flood-opacity="0" result="BackgroundImageFix"/>
			<feColorMatrix in="SourceAlpha" type="matrix" values="0 0 0 0 0 0 0 0 0 0 0 0 0 0 0 0 0 0 127 0" result="hardAlpha"/>
			<feOffset dx="0" dy="4"/>
			<feGaussianBlur stdDeviation="1.33333"/>
			<feComposite in2="hardAlpha" operator="out" k2="-1" k3="1"/>
			<feColorMatrix type="matrix" values="0 0 0 0 0 0 0 0 0 0 0 0 0 0 0 0 0 0 0.25 0"/>
			<feBlend mode="normal" in2="BackgroundImageFix" result="effect_dropShadow_1"/>
			<feBlend mode="normal" in="SourceGraphic" in2="effect_dropShadow_1" result="shape"/>
		</filter>
		<filter id="filter_3_20_dd" x="-258.000000" y="294.000000" width="0.000000" height="0.000000" filterUnits="userSpaceOnUse" color-interpolation-filters="sRGB">
			<feFlood flood-opacity="0" result="BackgroundImageFix"/>
			<feColorMatrix in="SourceAlpha" type="matrix" values="0 0 0 0 0 0 0 0 0 0 0 0 0 0 0 0 0 0 127 0" result="hardAlpha"/>
			<feOffset dx="0" dy="6.13333"/>
			<feGaussianBlur stdDeviation="2.04444"/>
			<feComposite in2="hardAlpha" operator="out" k2="-1" k3="1"/>
			<feColorMatrix type="matrix" values="0 0 0 0 0 0 0 0 0 0 0 0 0 0 0 0 0 0 0.25 0"/>
			<feBlend mode="normal" in2="BackgroundImageFix" result="effect_dropShadow_1"/>
			<feBlend mode="normal" in="SourceGraphic" in2="effect_dropShadow_1" result="shape"/>
		</filter>
		<filter id="filter_3_21_dd" x="8.750000" y="7.750000" width="88.500000" height="88.500000" filterUnits="userSpaceOnUse" color-interpolation-filters="sRGB">
			<feFlood flood-opacity="0" result="BackgroundImageFix"/>
			<feColorMatrix in="SourceAlpha" type="matrix" values="0 0 0 0 0 0 0 0 0 0 0 0 0 0 0 0 0 0 127 0" result="hardAlpha"/>
			<feOffset dx="0" dy="4"/>
			<feGaussianBlur stdDeviation="1.33333"/>
			<feComposite in2="hardAlpha" operator="out" k2="-1" k3="1"/>
			<feColorMatrix type="matrix" values="0 0 0 0 0 0 0 0 0 0 0 0 0 0 0 0 0 0 0.25 0"/>
			<feBlend mode="normal" in2="BackgroundImageFix" result="effect_dropShadow_1"/>
			<feBlend mode="normal" in="SourceGraphic" in2="effect_dropShadow_1" result="shape"/>
		</filter>
		<filter id="filter_3_36_dd" x="14.638519" y="10.897217" width="76.722870" height="76.847443" filterUnits="userSpaceOnUse" color-interpolation-filters="sRGB">
			<feFlood flood-opacity="0" result="BackgroundImageFix"/>
			<feColorMatrix in="SourceAlpha" type="matrix" values="0 0 0 0 0 0 0 0 0 0 0 0 0 0 0 0 0 0 127 0" result="hardAlpha"/>
			<feOffset dx="0" dy="1.32103"/>
			<feGaussianBlur stdDeviation="0.440342"/>
			<feComposite in2="hardAlpha" operator="out" k2="-1" k3="1"/>
			<feColorMatrix type="matrix" values="0 0 0 0 0 0 0 0 0 0 0 0 0 0 0 0 0 0 0.45 0"/>
			<feBlend mode="normal" in2="BackgroundImageFix" result="effect_dropShadow_1"/>
			<feBlend mode="normal" in="SourceGraphic" in2="effect_dropShadow_1" result="shape"/>
		</filter>
		<linearGradient id="paint_linear_1_52_0" x1="53.000000" y1="0.000000" x2="53.000000" y2="98.000000" gradientUnits="userSpaceOnUse">
			<stop stop-color="#3D3D3D"/>
			<stop offset="1.000000" stop-color="#030303"/>
		</linearGradient>
		<linearGradient id="paint_linear_3_20_0" x1="53.000004" y1="2.000000" x2="53.000004" y2="94.000008" gradientUnits="userSpaceOnUse">
			<stop stop-color="#3D3D3D"/>
			<stop offset="1.000000" stop-color="#030303"/>
		</linearGradient>
		<linearGradient id="paint_linear_3_21_0" x1="53.000004" y1="7.750000" x2="53.000004" y2="88.250008" gradientUnits="userSpaceOnUse">
			<stop stop-color="#3D3D3D"/>
			<stop offset="1.000000" stop-color="#030303"/>
		</linearGradient>
		<linearGradient id="paint_linear_3_26_0" x1="52.999924" y1="24.999949" x2="52.999924" y2="70.999786" gradientUnits="userSpaceOnUse">
			<stop stop-color="#B4B4B8"/>
			<stop offset="1.000000" stop-color="#B4B4B8"/>
		</linearGradient>
		<linearGradient id="paint_linear_3_36_0" x1="53.030087" y1="11.441544" x2="53.030087" y2="85.150116" gradientUnits="userSpaceOnUse">
			<stop offset="0.193294" stop-color="#D4D4D8"/>
			<stop offset="0.830878" stop-color="#9D9DA1"/>
		</linearGradient>
	</defs>
	<g filter="url(#filter_1_52_dd)">
		<circle id="Ellipse 62" cx="53.000000" cy="49.000000" r="49.000000" fill="url(#paint_linear_1_52_0)"/>
	</g>
	<g filter="url(#filter_3_21_dd)">
		<circle id="Ellipse 1" cx="53.000000" cy="48.000000" r="40.250004" fill="url(#paint_linear_3_21_0)"/>
	</g>
	<path id="Subtract" d="M51.4596 27.5759C51.6902 27.5588 51.9218 27.5456 52.1545 27.5361L52.7848 24.101C52.8286 23.8619 53.1713 23.8619 53.2151 24.101L53.8454 27.5362C54.0781 27.5456 54.3097 27.5589 54.5403 27.576L55.5656 24.2376C55.637 24.0052 55.9774 24.0451 55.9931 24.2877L56.2194 27.7698C56.4497 27.8061 56.6787 27.8461 56.9064 27.8899L58.3118 24.6956C58.4097 24.4731 58.7431 24.5523 58.7306 24.795L58.5505 28.2775C58.7751 28.3403 58.9982 28.4069 59.2196 28.4771L60.9861 25.4688C61.1093 25.2592 61.4312 25.3766 61.3905 25.6162L60.8067 29.0539C61.0222 29.1425 61.2359 29.2347 61.4477 29.3303L63.5524 26.5468C63.699 26.3529 64.0052 26.5069 63.9369 26.7402L62.9568 30.0884C63.1602 30.2013 63.3614 30.3175 63.5605 30.437L65.9759 27.9149C66.1441 27.7393 66.4303 27.9279 66.3354 28.1516L64.9717 31.3654C65.1602 31.5009 65.3463 31.6394 65.5299 31.7809L68.2239 29.5546C68.4113 29.3997 68.6737 29.6202 68.5534 29.8315L66.8246 32.8665C66.996 33.0226 67.1647 33.1815 67.3306 33.3432L70.2659 31.4437C70.47 31.3116 70.7051 31.5611 70.561 31.757L68.4913 34.5708C68.6434 34.7456 68.7927 34.9229 68.9389 35.1028L72.0744 33.5567C72.2925 33.4491 72.497 33.7243 72.3311 33.9021L69.9495 36.4556C70.0805 36.6469 70.2083 36.8405 70.3329 37.0364L73.6249 35.8649C73.854 35.7834 74.0252 36.0804 73.8398 36.2378L71.1792 38.4965C71.2872 38.7019 71.3918 38.9093 71.4929 39.1187L74.8965 38.3372C75.1335 38.2827 75.2691 38.5977 75.0667 38.7325L72.1627 40.6667C72.246 40.8833 72.3256 41.1017 72.4017 41.3218L75.8719 40.9401C76.1137 40.9135 76.2119 41.2421 75.9952 41.3525L72.8855 42.9372C72.9427 43.1618 72.9962 43.3879 73.0459 43.6154L76.5382 43.6384C76.7814 43.6384 76.8409 43.9777 76.6128 44.0623L73.3374 45.2768C73.3679 45.506 73.3946 45.7363 73.4174 45.9677L76.8861 46.3956C77.1275 46.4254 77.1474 46.7678 76.9111 46.8253L73.5143 47.6526C73.5163 47.7684 73.5172 47.8843 73.5172 48.0005C73.5172 48.1163 73.5163 48.2319 73.5143 48.3473L76.9111 49.1746C77.1474 49.2321 77.1275 49.5745 76.8861 49.6043L73.4176 50.0322C73.3947 50.2636 73.368 50.494 73.3376 50.7231L76.6128 51.9376C76.8408 52.0222 76.7814 52.3615 76.5382 52.3615L73.0461 52.3845C72.9964 52.6121 72.9429 52.8382 72.8857 53.0628L75.9952 54.6474C76.2119 54.7578 76.1137 55.0864 75.8719 55.0598L72.402 54.6781C72.326 54.8983 72.2463 55.1168 72.1631 55.3335L75.0667 57.2674C75.2691 57.4022 75.1335 57.7171 74.8965 57.6627L71.4934 56.8813C71.3922 57.0908 71.2876 57.2983 71.1796 57.5038L73.8398 59.7621C74.0252 59.9195 73.854 60.2165 73.6249 60.135L70.3335 58.9637C70.2089 59.1596 70.081 59.3533 69.9499 59.5447L72.3311 62.0978C72.497 62.2756 72.2925 62.5508 72.0744 62.4432L68.9395 60.8974C68.7932 61.0774 68.644 61.2548 68.4917 61.4297L70.561 64.2429C70.7051 64.4388 70.47 64.6883 70.2659 64.5562L67.3313 62.6571C67.1653 62.8189 66.9965 62.9779 66.8251 63.1341L68.5534 66.1684C68.6737 66.3797 68.4113 66.6002 68.2239 66.4453L65.5306 64.2195C65.3469 64.3612 65.1607 64.4998 64.9721 64.6353L66.3354 67.8482C66.4303 68.0721 66.1441 68.2606 65.9759 68.085L63.5612 65.5636C63.362 65.6832 63.1606 65.7995 62.9571 65.9125L63.9369 69.2597C64.0052 69.493 63.699 69.647 63.5524 69.4531L61.4484 66.6704C61.2364 66.7661 61.0226 66.8584 60.8069 66.947L61.3905 70.3837C61.4312 70.6233 61.1093 70.7407 60.9861 70.5311L59.2202 67.5237C58.9986 67.594 58.7753 67.6606 58.5506 67.7235L58.7306 71.2049C58.7431 71.4476 58.4097 71.5268 58.3118 71.3043L56.9068 68.111C56.679 68.1549 56.4498 68.1949 56.2194 68.2312L55.9931 71.7122C55.9774 71.9548 55.637 71.9946 55.5656 71.7623L54.5406 68.425C54.3099 68.4421 54.078 68.4554 53.8452 68.4648L53.2151 71.8989C53.1713 72.138 52.8286 72.138 52.7848 71.8989L52.1547 68.4649C51.9219 68.4555 51.69 68.4422 51.4592 68.4251L50.4343 71.7623C50.3629 71.9947 50.0226 71.9548 50.0068 71.7122L49.7806 68.2313C49.5501 68.1951 49.3209 68.155 49.093 68.1111L47.6881 71.3043C47.5902 71.5268 47.2568 71.4476 47.2693 71.2049L47.4493 67.7237C47.2245 67.6608 47.0013 67.5942 46.7797 67.5239L45.0137 70.5311C44.8907 70.7407 44.5687 70.6233 44.6094 70.3837L45.193 66.9473C44.9772 66.8586 44.7634 66.7664 44.5514 66.6706L42.4475 69.4531C42.3009 69.647 41.9947 69.493 42.063 69.2597L43.0427 65.9128C42.8391 65.7998 42.6377 65.6835 42.4385 65.5639L40.024 68.085C39.8558 68.2606 39.5696 68.0721 39.6646 67.8482L41.0276 64.6357C40.839 64.5001 40.6527 64.3615 40.469 64.2198L37.776 66.4453C37.5886 66.6002 37.3262 66.3797 37.4465 66.1684L39.1746 63.1345C39.0031 62.9783 38.8343 62.8192 38.6682 62.6573L35.734 64.5562C35.5298 64.6883 35.2948 64.4388 35.4389 64.2429L37.5079 61.4301C37.3556 61.2552 37.2063 61.0777 37.0599 60.8977L33.9255 62.4432C33.7074 62.5508 33.5029 62.2756 33.6688 62.0978L36.0496 59.5451C35.9185 59.3537 35.7906 59.1599 35.6659 58.9639L32.375 60.135C32.1459 60.2165 31.9747 59.9195 32.1601 59.7621L34.8199 57.5042C34.7118 57.2986 34.6071 57.091 34.5059 56.8814L31.1034 57.6627C30.8664 57.7171 30.7308 57.4022 30.9332 57.2674L33.8363 55.3338C33.753 55.117 33.6733 54.8985 33.5973 54.6782L30.1279 55.0598C29.8862 55.0864 29.788 54.7578 30.0047 54.6474L33.1136 53.0631C33.0564 52.8384 33.0029 52.6122 32.9531 52.3845L29.4617 52.3615C29.2185 52.3615 29.1591 52.0222 29.3871 51.9376L32.6617 50.7233C32.6313 50.4941 32.6045 50.2637 32.5817 50.0321L29.1138 49.6043C28.8724 49.5745 28.8525 49.2321 29.0888 49.1746L32.4849 48.3474C32.483 48.232 32.482 48.1164 32.482 48.0005C32.482 47.8843 32.483 47.7683 32.4849 47.6525L29.0888 46.8253C28.8525 46.7678 28.8724 46.4254 29.1138 46.3956L32.5818 45.9678C32.6046 45.7363 32.6314 45.5058 32.6619 45.2766L29.3871 44.0623C29.1591 43.9777 29.2185 43.6384 29.4617 43.6384L32.9534 43.6154C33.0031 43.3878 33.0566 43.1616 33.1139 42.937L30.0047 41.3525C29.788 41.2421 29.8862 40.9135 30.1279 40.9401L33.5976 41.3217C33.6737 41.1015 33.7534 40.8831 33.8367 40.6663L30.9332 38.7325C30.7308 38.5977 30.8664 38.2827 31.1034 38.3372L34.5064 39.1186C34.6076 38.9091 34.7122 38.7016 34.8203 38.4961L32.1601 36.2378C31.9747 36.0804 32.1459 35.7834 32.375 35.8649L35.6664 37.0363C35.7911 36.8403 35.919 36.6466 36.05 36.4552L33.6688 33.9021C33.5029 33.7243 33.7074 33.4491 33.9255 33.5567L37.0605 35.1026C37.2068 34.9226 37.3561 34.7452 37.5083 34.5704L35.4389 31.757C35.2948 31.5611 35.5298 31.3116 35.734 31.4437L38.6689 33.343C38.8349 33.1812 39.0036 33.0223 39.175 32.8662L37.4465 29.8315C37.3262 29.6202 37.5886 29.3997 37.776 29.5546L40.4697 31.7807C40.6533 31.6391 40.8395 31.5005 41.028 31.3651L39.6646 28.1516C39.5696 27.9279 39.8558 27.7393 40.024 27.9149L42.4392 30.4368C42.6383 30.3172 42.8396 30.201 43.043 30.0881L42.063 26.7402C41.9947 26.5069 42.3009 26.3529 42.4475 26.5468L44.552 29.3301C44.7638 29.2344 44.9776 29.1423 45.1931 29.0537L44.6094 25.6162C44.5687 25.3766 44.8907 25.2592 45.0137 25.4688L46.7802 28.477C47.0016 28.4067 47.2247 28.3401 47.4494 28.2773L47.2693 24.795C47.2567 24.5523 47.5902 24.4731 47.6881 24.6956L49.0935 27.8898C49.3212 27.846 49.5502 27.8059 49.7805 27.7697L50.0068 24.2877C50.0226 24.0451 50.3629 24.0052 50.4343 24.2376L51.4596 27.5759ZM53 30.7499C43.4731 30.7499 35.75 38.473 35.75 48C35.75 57.5269 43.4731 65.25 53 65.25C62.5269 65.25 70.25 57.5269 70.25 48C70.25 38.473 62.5269 30.7499 53 30.7499Z" clip-rule="evenodd" fill-rule="evenodd" fill="url(#paint_linear_3_26_0)" fill-opacity="1.000000"/>
	<g filter="url(#filter_3_36_dd)">
		<path id="Subtract" d="M51.8735 16.934C51.4171 16.9503 50.9632 16.9763 50.512 17.0121L48.9783 11.3415C48.899 11.0483 48.4592 11.0986 48.4592 11.4022L48.2747 17.2708C47.8231 17.3397 47.3747 17.4183 46.9297 17.5063L44.7497 12.0563C44.6369 11.7743 44.2154 11.8742 44.2411 12.1768L44.7389 18.0236C44.2984 18.1447 43.8619 18.2753 43.4294 18.4151L40.6327 13.2571C40.4879 12.9901 40.0809 13.1383 40.1416 13.4359L41.3147 19.185C40.8918 19.3567 40.4734 19.5374 40.0601 19.7269L36.6829 14.9278C36.5081 14.6794 36.121 14.8738 36.2159 15.1624L38.0492 20.7387C37.6498 20.9582 37.2558 21.1862 36.8673 21.4226L32.9538 17.0457C32.7514 16.8193 32.3894 17.0573 32.5172 17.3329L34.9869 22.6618C34.6163 22.9258 34.2516 23.1977 33.8933 23.4773L29.4958 19.5822C29.2685 19.3808 28.9366 19.6593 29.0954 19.9182L32.1683 24.9262C31.831 25.231 31.5004 25.543 31.1768 25.8621L26.3557 22.503C26.1064 22.3294 25.8092 22.6445 25.997 22.8832L29.6304 27.5005C29.3306 27.842 29.0381 28.1902 28.7533 28.5447L23.5758 25.7686C23.3081 25.6251 23.0494 25.9726 23.2637 26.1879L27.4068 30.3504C27.1484 30.7244 26.898 31.1044 26.6558 31.49L21.1938 29.3349C20.9113 29.2234 20.6947 29.5986 20.9325 29.7875L25.5282 33.4388C25.3149 33.8405 25.1101 34.2473 24.9142 34.6592L19.242 33.1536C18.9485 33.0757 18.7769 33.4734 19.035 33.6335L24.0217 36.7254C23.8567 37.1491 23.7008 37.5773 23.5541 38.0098L17.7467 37.173C17.4461 37.1297 17.3219 37.5447 17.5969 37.6737L22.9095 40.1662C22.7953 40.6057 22.6906 41.049 22.5955 41.4958L16.7282 41.3389C16.4246 41.3389 16.3494 41.7574 16.6374 41.8536L22.2071 43.7136C22.1452 44.1625 22.0929 44.6144 22.0504 45.0692L16.2001 45.5948C15.8976 45.622 15.8725 46.0544 16.1698 46.1166L21.9214 47.3182C21.9165 47.5448 21.914 47.7721 21.914 47.9999C21.914 48.2277 21.9165 48.455 21.9214 48.6816L16.1698 49.8833C15.8725 49.9454 15.8976 50.3778 16.2001 50.405L22.0504 50.9306C22.0929 51.3854 22.1452 51.8373 22.2071 52.2862L16.6374 54.1462C16.3494 54.2424 16.4246 54.6609 16.7282 54.6609L22.5955 54.504C22.6906 54.9508 22.7953 55.3941 22.9095 55.8337L17.5969 58.3261C17.3219 58.4551 17.4461 58.8701 17.7468 58.8268L23.5541 57.99C23.7008 58.4225 23.8567 58.8507 24.0217 59.2744L19.035 62.3663C18.7769 62.5264 18.9485 62.9242 19.242 62.8463L24.9142 61.3406C25.1101 61.7525 25.3149 62.1593 25.5282 62.561L20.9325 66.2123C20.6947 66.4012 20.9113 66.7764 21.1938 66.6649L26.6558 64.5098C26.898 64.8954 27.1484 65.2754 27.4068 65.6494L23.2637 69.8119C23.0494 70.0272 23.3081 70.3747 23.5758 70.2312L28.7533 67.4551C29.0381 67.8096 29.3306 68.1578 29.6304 68.4993L25.997 73.1166C25.8092 73.3553 26.1064 73.6704 26.3557 73.4968L31.1768 70.1378C31.5004 70.4568 31.831 70.7688 32.1683 71.0736L29.0954 76.0817C28.9366 76.3405 29.2685 76.619 29.4958 76.4176L33.8933 72.5225C34.2516 72.8021 34.6163 73.074 34.9869 73.338L32.5172 78.6669C32.3895 78.9425 32.7514 79.1805 32.9538 78.9541L36.8673 74.5772C37.2558 74.8136 37.6498 75.0416 38.0492 75.2611L36.2159 80.8375C36.121 81.126 36.5081 81.3204 36.6829 81.072L40.0601 76.2729C40.4734 76.4624 40.8918 76.6432 41.3147 76.8148L40.1416 82.5639C40.0808 82.8615 40.4879 83.0097 40.6327 82.7427L43.4294 77.5847C43.8619 77.7245 44.2984 77.8551 44.7389 77.9762L44.2411 83.823C44.2154 84.1256 44.6369 84.2255 44.7497 83.9435L46.9297 78.4935C47.3747 78.5815 47.8231 78.6601 48.2747 78.729L48.4592 84.5976C48.4592 84.9012 48.899 84.9515 48.9783 84.6583L50.512 78.9877C50.9632 79.0235 51.4171 79.0496 51.8735 79.0658L52.7386 84.8773C52.7834 85.1777 53.2166 85.1777 53.2613 84.8773L54.1264 79.0658C54.5829 79.0496 55.0367 79.0235 55.488 78.9877L57.0216 84.6583C57.1009 84.9515 57.5407 84.9012 57.5407 84.5976L57.7252 78.729C58.1768 78.6601 58.6252 78.5815 59.0703 78.4935L61.2502 83.9435C61.363 84.2255 61.7845 84.1256 61.7588 83.823L61.261 77.9762C61.7015 77.8551 62.138 77.7245 62.5705 77.5847L65.3672 82.7427C65.512 83.0097 65.919 82.8615 65.8583 82.5639L64.6852 76.8148C65.1082 76.6432 65.5265 76.4624 65.9398 76.2729L69.317 81.072C69.4918 81.3204 69.8789 81.126 69.784 80.8375L67.9507 75.2611C68.3501 75.0416 68.7441 74.8136 69.1326 74.5772L73.0461 78.9541C73.2485 79.1805 73.6105 78.9425 73.4828 78.6669L71.013 73.338C71.3836 73.074 71.7483 72.8021 72.1066 72.5225L76.5041 76.4176C76.7314 76.619 77.0633 76.3405 76.9045 76.0816L73.8316 71.0736C74.1689 70.7688 74.4995 70.4568 74.8231 70.1378L79.6443 73.4968C79.8935 73.6704 80.1907 73.3553 80.0029 73.1166L76.3695 68.4993C76.6693 68.1578 76.9618 67.8096 77.2466 67.4551L82.4241 70.2312C82.6918 70.3747 82.9505 70.0272 82.7362 69.812L78.5931 65.6494C78.8515 65.2754 79.1019 64.8954 79.3441 64.5098L84.8061 66.6649C85.0886 66.7764 85.3052 66.4012 85.0674 66.2123L80.4717 62.561C80.685 62.1593 80.8898 61.7525 81.0858 61.3406L86.7579 62.8462C87.0514 62.9242 87.223 62.5264 86.9649 62.3663L81.9782 59.2744C82.1432 58.8507 82.2991 58.4225 82.4458 57.99L88.2532 58.8268C88.5538 58.8701 88.678 58.4551 88.4031 58.3261L83.0905 55.8337C83.2046 55.3941 83.3093 54.9508 83.4044 54.504L89.2717 54.6609C89.5753 54.6609 89.6505 54.2424 89.3625 54.1462L83.7928 52.2862C83.8547 51.8373 83.907 51.3854 83.9496 50.9306L89.7997 50.405C90.1023 50.3778 90.1274 49.9454 89.8301 49.8832L84.0786 48.6816C84.0834 48.455 84.0859 48.2277 84.0859 47.9999C84.0859 47.7721 84.0834 47.5448 84.0786 47.3182L89.8301 46.1166C90.1274 46.0544 90.1023 45.622 89.7998 45.5948L83.9496 45.0692C83.907 44.6144 83.8547 44.1625 83.7928 43.7136L89.3625 41.8536C89.6505 41.7574 89.5753 41.3389 89.2717 41.3389L83.4044 41.4958C83.3093 41.049 83.2046 40.6057 83.0905 40.1661L88.403 37.6737C88.678 37.5447 88.5538 37.1297 88.2531 37.173L82.4458 38.0098C82.2991 37.5773 82.1432 37.1491 81.9782 36.7254L86.9649 33.6335C87.223 33.4734 87.0514 33.0756 86.7579 33.1536L81.0858 34.6592C80.8898 34.2473 80.685 33.8405 80.4717 33.4388L85.0674 29.7875C85.3052 29.5986 85.0886 29.2234 84.8061 29.3349L79.3441 31.49C79.1019 31.1044 78.8515 30.7244 78.5931 30.3504L82.7362 26.1879C82.9505 25.9726 82.6918 25.6251 82.4241 25.7686L77.2466 28.5447C76.9618 28.1902 76.6693 27.842 76.3695 27.5005L80.0029 22.8832C80.1907 22.6445 79.8935 22.3294 79.6443 22.503L74.8231 25.8621C74.4995 25.543 74.1689 25.231 73.8316 24.9262L76.9045 19.9182C77.0633 19.6593 76.7314 19.3808 76.5041 19.5822L72.1066 23.4773C71.7483 23.1977 71.3836 22.9258 71.013 22.6618L73.4828 17.3329C73.6105 17.0573 73.2485 16.8193 73.0461 17.0457L69.1326 21.4226C68.7441 21.1862 68.3501 20.9582 67.9507 20.7387L69.784 15.1624C69.8789 14.8738 69.4918 14.6794 69.317 14.9278L65.9398 19.7269C65.5264 19.5374 65.1082 19.3567 64.6852 19.185L65.8583 13.4359C65.919 13.1383 65.512 12.9901 65.3672 13.2571L62.5705 18.4151C62.138 18.2753 61.7015 18.1447 61.261 18.0236L61.7588 12.1768C61.7845 11.8742 61.363 11.7743 61.2502 12.0563L59.0703 17.5063C58.6252 17.4183 58.1768 17.3397 57.7252 17.2708L57.5407 11.4022C57.5407 11.0986 57.1009 11.0483 57.0216 11.3415L55.488 17.0121C55.0367 16.9763 54.5829 16.9503 54.1264 16.934L53.2613 11.1225C53.2166 10.8221 52.7834 10.8221 52.7386 11.1225L51.8735 16.934ZM75.5886 45.961C78.6738 45.961 81.1532 43.3091 80.2916 40.3468C76.9293 28.7865 66.1413 20.328 53.3526 20.328C50.8854 20.328 48.4927 20.6429 46.2133 21.234C43.2259 22.0088 42.1972 25.4883 43.762 28.1485L52.7 43.3442C53.6536 44.9655 55.394 45.961 57.2749 45.961L75.5886 45.961ZM33.6675 28.3042C35.8316 26.1952 39.2711 27.0244 40.8032 29.629L49.7976 44.9207C50.7745 46.5817 50.7745 48.6416 49.7976 50.3026L40.5137 66.0865C38.9667 68.7165 35.4808 69.529 33.3318 67.3629C28.3807 62.3722 25.3281 55.5381 25.3281 47.9999C25.3281 40.2928 28.519 33.3217 33.6675 28.3042ZM53.0169 46.4281C52.1734 46.4281 51.4896 47.1119 51.4896 47.9554C51.4896 48.7989 52.1734 49.4828 53.0169 49.4828C53.8605 49.4828 54.5443 48.7989 54.5443 47.9554C54.5443 47.1119 53.8605 46.4281 53.0169 46.4281ZM57.2749 49.2623C55.394 49.2623 53.6536 50.2578 52.7 51.8791L43.3687 67.7435C41.8189 70.3783 42.8096 73.8255 45.755 74.6428C48.1712 75.3132 50.7195 75.6718 53.3526 75.6718C66.4725 75.6718 77.4868 66.7695 80.5378 54.7487C81.2822 51.8157 78.8199 49.2623 75.7939 49.2623L57.2749 49.2623Z" clip-rule="evenodd" fill-rule="evenodd" fill="url(#paint_linear_3_36_0)" fill-opacity="1.000000"/>
	</g>
</svg>
